{
  "accessors": [
    {
      "bufferView": 2,
      "componentType": 5126,
      "count": 14389,
      "max": [
        4.30000114440918,
        4.0,
        4.099999904632568
      ],
      "min": [
        -4.792619228363037,
        -4.800000190734863,
        -0.15000000596046448
      ],
      "type": "VEC3"
    },
    {
      "bufferView": 2,
      "byteOffset": 172668,
      "componentType": 5126,
      "count": 14389,
      "max": [
        1.0,
        1.0,
        1.0
      ],
      "min": [
        -1.0,
        -1.0,
        -1.0
      ],
      "type": "VEC3"
    },
    {
      "bufferView": 1,
      "componentType": 5126,
      "count": 14389,
      "max": [
        0.972245991230011,
        0.9852910041809082
      ],
      "min": [
        0.0,
        0.0
      ],
      "type": "VEC2"
    },
    {
      "bufferView": 0,
      "componentType": 5125,
      "count": 21609,
      "type": "SCALAR"
    },
    {
      "bufferView": 2,
      "byteOffset": 345336,
      "componentType": 5126,
      "count": 28,
      "max": [
        2.6352128982543945,
        3.0085339546203613,
        1.1882450580596924
      ],
      "min": [
        0.4422999918460846,
        0.7816579937934875,
        0.7156410217285156
      ],
      "type": "VEC3"
    },
    {
      "bufferView": 2,
      "byteOffset": 345672,
      "componentType": 5126,
      "count": 28,
      "max": [
        0.9288228154182434,
        0.7564415335655212,
        0.7296024560928345
      ],
      "min": [
        -0.816521406173706,
        -0.8914275169372559,
        -0.625516414642334
      ],
      "type": "VEC3"
    },
    {
      "bufferView": 1,
      "byteOffset": 115112,
      "componentType": 5126,
      "count": 28,
      "max": [
        0.31473299860954285,
        0.9809849858283997
      ],
      "min": [
        0.11083900183439255,
        0.7709320187568665
      ],
      "type": "VEC2"
    },
    {
      "bufferView": 0,
      "byteOffset": 86436,
      "componentType": 5125,
      "count": 42,
      "type": "SCALAR"
    }
  ],
  "asset": {
    "extras": {
      "author": "Mumladze28 (https://sketchfab.com/Mumladze28)",
      "license": "CC-BY-4.0 (http://creativecommons.org/licenses/by/4.0/)",
      "source": "https://sketchfab.com/3d-models/low-poly-bedroom-c0e9eb2ad16d4520a15977bcb940777e",
      "title": "Low Poly Bedroom"
    },
    "generator": "Sketchfab-12.67.0",
    "version": "2.0"
  },
  "bufferViews": [
    {
      "buffer": 0,
      "byteLength": 86604,
      "name": "floatBufferViews",
      "target": 34963
    },
    {
      "buffer": 0,
      "byteLength": 115336,
      "byteOffset": 86604,
      "byteStride": 8,
      "name": "floatBufferViews",
      "target": 34962
    },
    {
      "buffer": 0,
      "byteLength": 346008,
      "byteOffset": 201940,
      "byteStride": 12,
      "name": "floatBufferViews",
      "target": 34962
    }
  ],
  "buffers": [
    {
      "byteLength": 547948,
      "uri": "scene.bin"
    }
  ],
  "images": [
    {
      "uri": "textures/Interior_Mat_baseColor.png"
    }
  ],
  "materials": [
    {
      "doubleSided": true,
      "name": "Interior_Mat",
      "pbrMetallicRoughness": {
        "baseColorTexture": {
          "index": 0
        },
        "metallicFactor": 0.0,
        "roughnessFactor": 0.6
      }
    }
  ],
  "meshes": [
    {
      "name": "Object_0",
      "primitives": [
        {
          "attributes": {
            "NORMAL": 1,
            "POSITION": 0,
            "TEXCOORD_0": 2
          },
          "indices": 3,
          "material": 0,
          "mode": 4
        }
      ]
    },
    {
      "name": "Object_1",
      "primitives": [
        {
          "attributes": {
            "NORMAL": 5,
            "POSITION": 4,
            "TEXCOORD_0": 6
          },
          "indices": 7,
          "material": 0,
          "mode": 4
        }
      ]
    }
  ],
  "nodes": [
    {
      "children": [
        1
      ],
      "matrix": [
        0.49184897541999817,
        0.0,
        0.0,
        0.0,
        0.0,
        1.0921241142991493e-16,
        -0.49184897541999817,
        0.0,
        0.0,
        0.49184897541999817,
        1.0921241142991493e-16,
        0.0,
        0.0,
        0.0,
        0.0,
        1.0
      ],
      "name": "Sketchfab_model"
    },
    {
      "children": [
        2,
        3
      ],
      "name": "LowPoly Room.obj.cleaner.materialmerger.gles"
    },
    {
      "mesh": 0,
      "name": "Object_2"
    },
    {
      "mesh": 1,
      "name": "Object_3"
    }
  ],
  "samplers": [
    {
      "magFilter": 9729,
      "minFilter": 9987,
      "wrapS": 10497,
      "wrapT": 10497
    }
  ],
  "scene": 0,
  "scenes": [
    {
      "name": "Sketchfab_Scene",
      "nodes": [
        0
      ]
    }
  ],
  "textures": [
    {
      "sampler": 0,
      "source": 0
    }
  ]
}
